# xmcd
#
# Track frame offsets:
#	150
#	19287
#	32437
#	45975
#	60547
#	73287
#	89660
#	109672
#	120800
#	137930
#
# Disc length: 2000 seconds
#
# Revision: 3
# Processed by: cddbd v1.5.2PL0 Copyright (c) Steve Scherf et al.
# Submitted via: EZCDAudioConverter 6.0.2.1
#
DISCID=8307ce0a
DTITLE=Various Artist - Rockin' Country Blues
DYEAR=1996
DGENRE=Country
TTITLE0=B.B. King - Better Not Look Down
TTITLE1=Vince Gill - Liza Jane
TTITLE2=Tanya Tucker - Should I Do It
TTITLE3=Marty Stuart - Tempted
TTITLE4=Little Richard - Little Richard's Boogie
TTITLE5=Patti LaBelle - Stir It Up
TTITLE6=Gladys Knight And The Pips - Love Overboard
TTITLE7=George Jones - High-Tech Redneck
TTITLE8=Conway Twitty - Crazy In Love
TTITLE9=Aaron Neville - Tell It Like It Is
EXTD=
EXTT0=
EXTT1=
EXTT2=
EXTT3=
EXTT4=
EXTT5=
EXTT6=
EXTT7=
EXTT8=
EXTT9=
PLAYORDER=
